<svg id="Layer_1" data-name="Layer 1" xmlns="http://www.w3.org/2000/svg" viewBox="0 0 300 112.47"><defs><style>.cls-1{fill:#ed1c24;}.cls-2{fill:none;stroke:#231f20;stroke-miterlimit:10;}.cls-3{font-size:21.07px;fill:#fff;font-family:MuseoSlab-500, Museo Slab;font-weight:500;}.cls-4{letter-spacing:-0.01em;}</style></defs><polygon class="cls-1" points="223.19 49.11 182.78 44.12 188.14 70.05 223.19 49.11"/><path class="cls-1" d="M175.58,34.72s23,11,19.91,41.45c-2.83,27.53-169,52.58-189.13,22.91C-11.45,72.85,10.28,34.45,45.11,31,129.61,22.58,167,28.9,175.58,34.72Z"/><path class="cls-1" d="M262.82,67.13,300,60.34s-14.61-23-46.58-14Z"/><path class="cls-2" d="M253.42,43.46c29.06-9.85,42.33,15.44,42.33,15.44L262,66.36"/><polygon class="cls-1" points="259.49 17.76 248.82 32.18 259.49 32.18 259.49 17.76"/><polygon class="cls-2" points="255.98 17.76 245.31 32.18 255.98 32.18 255.98 17.76"/><polyline class="cls-2" points="285.68 17.53 270.12 12.73 289.6 4.81"/><ellipse class="cls-1" cx="252.4" cy="6.94" rx="3.58" ry="6.38"/><ellipse class="cls-2" cx="250.07" cy="6.94" rx="3.58" ry="6.38"/><text class="cls-3" transform="matrix(0.99, -0.11, 0.11, 0.99, 21.67, 83.85)">cockta<tspan class="cls-4" x="68.15" y="0">i</tspan><tspan x="75.07" y="0">lfinder</tspan></text></svg>