<svg id="Layer_1" data-name="Layer 1" xmlns="http://www.w3.org/2000/svg" viewBox="0 0 300.34 106.61"><defs><style>.cls-1,.cls-4{fill:#fff;}.cls-1,.cls-2{stroke:#231f20;stroke-miterlimit:10;}.cls-2{fill:none;}.cls-3{fill:#ed1c24;}.cls-4{font-size:21.35px;font-family:JavaneseText, Javanese Text;letter-spacing:0.1em;}.cls-5{letter-spacing:0.1em;}.cls-6{letter-spacing:0.12em;}.cls-7{letter-spacing:0.11em;}.cls-8{letter-spacing:0.12em;}</style></defs><path class="cls-1" d="M264.45,12.29c.14-.58,2.1-8.21,11.56-11.19C284-1.42,294,.48,300,6" transform="translate(0 0.5)"/><line class="cls-2" x1="271.23" y1="9.37" x2="269.65" y2="4.96"/><line class="cls-2" x1="282.39" y1="7.16" x2="282.06" y2="0.77"/><line class="cls-2" x1="294.63" y1="9.14" x2="295.21" y2="3.4"/><path class="cls-2" d="M228,9.85A12.57,12.57,0,0,1,240.89,2,12.76,12.76,0,0,1,251,10.83" transform="translate(0 0.5)"/><line class="cls-2" x1="245.04" y1="11.33" x2="248.01" y2="6.27"/><line class="cls-2" x1="234.42" y1="11.33" x2="233.69" y2="3.96"/><path class="cls-3" d="M262.17,56.28s-20.7,7.94-18.56,1.14C244.64,54.15,262.17,56.28,262.17,56.28Z" transform="translate(0 0.5)"/><path class="cls-3" d="M269.43,54.65s-13.21-6.95-14.74-2.89-7.12.81-7.12.81S243,50.41,243,54.65,269.43,54.65,269.43,54.65Z" transform="translate(0 0.5)"/><path class="cls-2" d="M295.42,42.5a69.73,69.73,0,0,1-37.34,13.55,68,68,0,0,1-25-3.41" transform="translate(0 0.5)"/><path class="cls-2" d="M256.22,24s-16.59-2.93-11.75,4.42,11.75,5.08,11.75,5.08" transform="translate(0 0.5)"/><path class="cls-3" d="M137.72,34.66S18.42,8.07,4.32,43,13,106.29,39,106.11s169.2-18,160.52-40.23S137.72,34.66,137.72,34.66Z" transform="translate(0 0.5)"/><polygon class="cls-3" points="218.81 56.6 196.79 69.49 184.08 58.69 218.81 56.6"/><text class="cls-4" transform="translate(21.67 61.59) rotate(-2.35)">a s<tspan class="cls-5" x="30.84" y="0">t</tspan><tspan x="40.44" y="0">udy in </tspan><tspan class="cls-6"><tspan x="0" y="22.88">c</tspan><tspan class="cls-7" x="12.33" y="22.88">r</tspan><tspan class="cls-8" x="22.87" y="22.88">aigslist</tspan></tspan></text></svg>