<svg id="Layer_1" data-name="Layer 1" xmlns="http://www.w3.org/2000/svg" viewBox="0 0 300 93.64"><defs><style>.cls-1{fill:#ed1c24;}.cls-2{fill:none;stroke:#231f20;stroke-miterlimit:10;}.cls-3{font-size:28.96px;fill:#fff;font-family:Georgia;}.cls-4{font-family:Georgia-Italic, Georgia;font-style:italic;}</style></defs><path class="cls-1" d="M58.46,93.64s-8.5-36-21.41-39.77-2.42,34.55-2.42,34.55Z"/><path class="cls-2" d="M56.42,91.22s-8.5-36-21.41-39.78S32.59,86,32.59,86Z"/><ellipse class="cls-1" cx="7.83" cy="42.46" rx="7.17" ry="8.7" transform="translate(-25.47 14.98) rotate(-40.02)"/><ellipse class="cls-2" cx="10.99" cy="42.73" rx="7.17" ry="8.7" transform="translate(-24.91 17.08) rotate(-40.02)"/><ellipse class="cls-2" cx="46.39" cy="34.63" rx="3.43" ry="4.47" transform="translate(-11.41 37.94) rotate(-40.02)"/><path class="cls-2" d="M29.44,42.32l32-.48c2.45-.11,5.91-.14,6.06.63s-3.62,2.23-4.94,2.72c-4.25,1.57-13.11,3.61-32.16,2.46"/><path class="cls-1" d="M105.86,50.37c-.07-19.18,44.24-38.39,77.64-45,42.29-8.41,61.83-6.76,89.79,4.9,18.59,7.74,31.8,22.48,24.82,38.31C287.2,73.3,211.8,92.86,162.53,88.39,122.29,84.73,105.93,72.74,105.86,50.37Z"/><polygon class="cls-1" points="74.05 68.89 119.67 44.88 136 67.78 74.05 68.89"/><text class="cls-3" transform="translate(146.33 59.85) rotate(-8.77)">em<tspan class="cls-4" x="39.52" y="0">pet</tspan><tspan x="79.98" y="0">hy</tspan></text></svg>