<svg id="Layer_1" data-name="Layer 1" xmlns="http://www.w3.org/2000/svg" viewBox="0 0 300 72.41"><defs><style>.cls-1{fill:#ed1c24;}.cls-2{fill:none;stroke:#231f20;stroke-miterlimit:10;}.cls-3{font-size:15.61px;fill:#fff;font-family:FertigoPro-Regular, Fertigo Pro;}.cls-4{letter-spacing:0em;}.cls-5{letter-spacing:-0.01em;}.cls-6{letter-spacing:0em;}.cls-7{letter-spacing:0em;}.cls-8{letter-spacing:0em;}</style></defs><polygon class="cls-1" points="21.4 26.72 1.14 33.79 62.99 33.79 50.63 28.27 37.46 29.41 21.4 26.72"/><polygon class="cls-2" points="25.41 27.64 5.15 34.71 67 34.71 54.64 29.19 41.48 30.32 25.41 27.64"/><polygon class="cls-1" points="24.56 42 46.67 42 38.25 50.75 24.56 42"/><polygon class="cls-2" points="25.9 43.34 48 43.34 39.59 52.08 25.9 43.34"/><polygon class="cls-1" points="74.37 33.2 107 27.64 104.91 43.83 74.37 33.2"/><path class="cls-1" d="M121.91,11.08S81.69,32.25,102.5,47.77,257.83,80.71,287,68,292,15,258.06,11.89C175.65,4.46,130.27,5.93,121.91,11.08Z"/><polygon class="cls-1" points="41.39 11.89 29.66 11.89 38.2 17.84 41.39 11.89"/><polygon class="cls-2" points="45.4 11.89 33.67 11.89 42.21 17.84 45.4 11.89"/><path class="cls-1" d="M0,3.14A26.4,26.4,0,0,0,15.68,4.71,25.9,25.9,0,0,0,25.87,0"/><path class="cls-2" d="M1.34,4.48A26.32,26.32,0,0,0,17,6a25.91,25.91,0,0,0,10.19-4.7"/><path class="cls-1" d="M69.19,4.43A14.52,14.52,0,0,1,57.75,6a17.34,17.34,0,0,1-7.44-4.7"/><path class="cls-2" d="M67.85,5.77A14.55,14.55,0,0,1,56.41,7.34,17.25,17.25,0,0,1,49,2.63"/><text class="cls-3" transform="matrix(1, 0.06, -0.06, 1, 108.71, 39.66)">hea<tspan class="cls-4" x="25.42" y="0">l</tspan><tspan x="29.92" y="0">t</tspan><tspan class="cls-5" x="35.96" y="0">h</tspan><tspan class="cls-6" x="45.38" y="0">y campus initiat</tspan><tspan class="cls-7" x="159.17" y="0">i</tspan><tspan class="cls-8" x="163.66" y="0">v</tspan><tspan x="171.53" y="0">e</tspan></text></svg>